<svg id="Icon" height="512" viewBox="0 0 64 64" width="512" xmlns="http://www.w3.org/2000/svg"><path d="m61 7c0-2.20917-1.79083-4-4-4h-50c-2.20917 0-4 1.79083-4 4v10.93066h58z" fill="#14499e"/><path d="m5 17.93065c0-7.1414 5.78925-12.93065 12.93065-12.93065h41.06935c.58618 0 1.13873.13312 1.64038.35962-.6272-1.38892-2.0174-2.35962-3.64038-2.35962h-50c-2.20914 0-4 1.79086-4 4v10.93066h2z" fill="#1a305a"/><path d="m3 17.93066v39.06934c0 2.20911 1.79083 4 4 4h50c2.20917 0 4-1.79089 4-4v-39.06934z" fill="#e4f2fc"/><path d="m5 59v-.00004c0-21.57738 17.49192-39.0693 39.0693-39.0693h16.9307v-2h-58v39.06934c0 1.62292.9707 3.01324 2.35962 3.64044-.22656-.50165-.35962-1.05426-.35962-1.64044z" fill="#95c8ec"/><circle cx="9.874" cy="10.465" fill="#fcb316" r="2.5"/><circle cx="18.661" cy="10.465" fill="#e53a35" r="2.5"/><circle cx="27.448" cy="10.465" fill="#7cb342" r="2.5"/><rect fill="#e4f2fc" height="5" rx="2.5" width="20.495" x="36.131" y="7.965"/><circle cx="28.175" cy="35.64" fill="#70b2e2" r="14"/><path d="m15.17511 36.64044c0-7.73199 6.26801-14 14-14 3.61139 0 6.89252 1.37909 9.37561 3.62439-2.56189-2.83331-6.255-4.62439-10.37561-4.62439-7.73199 0-14 6.26801-14 14 0 4.12061 1.79108 7.81372 4.62439 10.37561-2.2453-2.48309-3.62439-5.76422-3.62439-9.37561z" fill="#57a0d7"/><circle cx="28.175" cy="35.64" fill="#e4f2fc" r="10"/><path d="m48.58818 50.62368-8.427-7.77631c-1.17993 1.95801-2.82117 3.59924-4.77917 4.77917l7.77631 8.427c1.48022 1.60406 3.99774 1.6546 5.54108.11121h.00006c1.5434-1.5434 1.49286-4.06085-.11127-5.54108z" fill="#14499e"/><path d="m43.14001 45.58997c-.81 2.07001-2.17999 4.09003-4.42004 5.66003l-3.33997-3.62c1.96002-1.17999 3.59998-2.82001 4.77997-4.78003l2.98004 2.73999z" fill="#1a305a"/></svg>